<?xml version="1.0" encoding="utf-8"?>
<?xml-stylesheet type="text/xsl" href="rss1.xsl"?>
<rss version="2.0" xmlns:atom="http://www.w3.org/2005/Atom" xmlns:content="http://purl.org/rss/1.0/modules/content/" xmlns:dc="http://purl.org/dc/elements/1.1/" xmlns:media="http://search.yahoo.com/mrss/">
<channel>
 <title>Getty</title>
 <link>http://www.gettyimg.com/</link>
 <atom:link href="http://www.gettyimg.com/" rel="self" type="application/rss+xml" />

 
                <item>
                <title><![CDATA[【Cinema Center】MOVIE - くまのプーさん／クリストファー・ロビンを探せ！ (1997) (JPN-ENG) (1080p DSNP WEB-DL DDP5.1 H.264)]]></title>
                <link><![CDATA[https://sharemania.us/threads/%E3%81%8F%E3%81%BE%E3%81%AE%E3%83%97%E3%83%BC%E3%81%95%E3%82%93%EF%BC%8F%E3%82%AF%E3%83%AA%E3%82%B9%E3%83%88%E3%83%95%E3%82%A1%E3%83%BC%E3%83%BB%E3%83%AD%E3%83%93%E3%83%B3%E3%82%92%E6%8E%A2%E3%81%9B%EF%BC%81-1997-jpn-eng-1080p-dsnp-web-dl-ddp5-1-h-264.233456/]]></link>
                <description><![CDATA[<article>
<blockquote class="messageText SelectQuoteContainer ugc baseHtml">
<b>Release Name</b><br>
Poohs.Grand.Adventure.The.Search.For.Christopher.Robin.1997.JPN-ENG.1080p.DSNP.WEB-DL.DDP.5.1.H.264<br>
<br>
<div class="bbCodeBlock bbCodeCode">
<div class="type">Code:</div>
<pre>General
Unique ID                                : 128349415949905351132797147034597951910 (0x608F32C7369A0C7BED67A925A4E789A6)
Complete name                            : C:\Users\austi\Documents\StreamFab\StreamFab\Output\Disney+\Poohs.Grand.Adventure.The.Search.For.Christopher.Robin.1997.JPN-ENG.1080p.DSNP.WEB-DL.DDP.5.1.H.264.mkv
Format                                   : Matroska
Format version                           : Version 4
File size                                : 3.06 GiB
Duration                                 : 1 h 15 min
Overall bit rate mode                    : Variable
Overall bit rate                         : 5 759 kb/s
Frame rate                               : 23.976 FPS
Movie name                               : くまのプーさん／クリストファー・ロビンを探せ！
Encoded date                             : 2023-12-02 01:57:35 UTC
Writing application                      : mkvmerge v68.0.0 ('The Curtain') 64-bit
Writing library                          : libebml v1.4.2 + libmatroska v1.6.4

Video
ID                                       : 1
Format                                   : AVC
Format/Info                              : Advanced Video Codec
Format profile                           : High@L4
Format settings                          : CABAC / 4 Ref Frames
Format settings, CABAC                   : Yes
Format settings, Reference frames        : 4 frames
Codec ID                                 : V_MPEG4/ISO/AVC
Duration                                 : 1 h 15 min
Bit rate mode                            : Variable
Bit rate                                 : 5 505 kb/s
Maximum bit rate                         : 8 250 kb/s
Width                                    : 1 920 pixels
Height                                   : 1 080 pixels
Display aspect ratio                     : 16:9
Frame rate mode                          : Constant
Frame rate                               : 23.976 (24000/1001) FPS
Color space                              : YUV
Chroma subsampling                       : 4:2:0
Bit depth                                : 8 bits
Scan type                                : Progressive
Bits/(Pixel*Frame)                       : 0.111
Time code of first frame                 : 00:00:00;00
Stream size                              : 2.92 GiB (96%)
Default                                  : Yes
Forced                                   : No
Color range                              : Limited
Color primaries                          : BT.709
Transfer characteristics                 : BT.709
Matrix coefficients                      : BT.709

Audio #1
ID                                       : 2
Format                                   : AAC LC
Format/Info                              : Advanced Audio Codec Low Complexity
Codec ID                                 : A_AAC-2
Duration                                 : 1 h 15 min
Bit rate                                 : 125 kb/s
Channel(s)                               : 2 channels
Channel layout                           : L R
Sampling rate                            : 48.0 kHz
Frame rate                               : 46.875 FPS (1024 SPF)
Compression mode                         : Lossy
Stream size                              : 68.1 MiB (2%)
Title                                    : Japanese (Japan)
Language                                 : Japanese (JP)
Default                                  : Yes
Forced                                   : No

Audio #2
ID                                       : 3
Format                                   : AAC LC
Format/Info                              : Advanced Audio Codec Low Complexity
Codec ID                                 : A_AAC-2
Duration                                 : 1 h 15 min
Bit rate                                 : 125 kb/s
Channel(s)                               : 2 channels
Channel layout                           : L R
Sampling rate                            : 48.0 kHz
Frame rate                               : 46.875 FPS (1024 SPF)
Compression mode                         : Lossy
Stream size                              : 68.1 MiB (2%)
Title                                    : English (United States)
Language                                 : English (US)
Default                                  : Yes
Forced                                   : No
</pre>
</div>
<div class="messageTextEndMarker">&nbsp;</div>
</blockquote>
</article>]]></description>
                <author><![CDATA[Austin Zimmermann]]></author>
                </item>

                </channel></rss>